# xmcd
#
# Track frame offsets:
#   150
#   1093
#   6477
#   16249
#   21145
#   31544
#   41208
#   45035
#   49004
#   55857
#   62240
#   66572
#   72955
#   79279
#   82259
#   84299
#   86433
#   88494
#   91035
#   94207
#   97887
#   103340
#   108936
#   111575
#   114106
#   117299
#   120614
#   123821
#   127007
#   128935
#   130142
#   131377
#   132734
#   134025
#   136020
#   139941
#   146251
#   152530
#   156496
#   162771
#   169046
#   170396
#   171544
#   172706
#   173896
#   174961
#   175984
#   179448
#   187977
#   196753
#   200409
#   203818
#   207293
#   210002
#   211676
#   213660
#   219211
#   225901
#   227439
#   228584
#   229732
#   230730
#   231802
#   232884
#   236432
#   246141
#   255868
#   256960
#   262880
#   272168
#   278457
#
# Disc length: 3819 seconds
#
# Revision: 0
# Processed by: cddbd v1.5.2PL0 Copyright (c) Steve Scherf et al.
# Submitted via: uFREEDB 1.6.0
#
DISCID=c70ee947
DTITLE=House Of Blues - Blues Guitar Level 1
DYEAR=2005
DGENRE=Blues
TTITLE0=Introduction
TTITLE1=Tuning
TTITLE2=Parts Of Guitar
TTITLE3=Readng Chord Charts
TTITLE4=Major Open Blues Chords
TTITLE5=Minor Open Blues Chords
TTITLE6=Major Open Chord Blues Progression
TTITLE7=Minor Open Chord Blues Progression
TTITLE8=Major And Minor Progressions With Backing Track
TTITLE9=Backing Track For You To Play With
TTITLE10=Basic 2 String Blues Progression
TTITLE11=2 String Blues Progression With Backing Track
TTITLE12=You Play Basic Blues Progression With Backing Trac
TTITLE13=A Minor Pentatonic Scale - Position 1
TTITLE14=A Minor Pentatonic Scale - Position 2
TTITLE15=A Minor Pentatonic Scale - Position 3
TTITLE16=A Minor Pentatonic Scale - Position 4
TTITLE17=A Minor Pentatonic Scale - Position 5
TTITLE18=Am Doubling Lead Pattern - Position 1
TTITLE19=Am Doubling Lead Pattern - Position 2
TTITLE20=Am Triplet Lead Pattern - Position 1
TTITLE21=Am Triplet Lead Pattern - Position 2
TTITLE22=Bending
TTITLE23=Hammer On's
TTITLE24=Pull Off's
TTITLE25=Complete Blues Lead Slow
TTITLE26=Complete Blues Progression Over 2 String Blues Ryt
TTITLE27=You Play 2 String Blues Rythmn - Complete Blues Pr
TTITLE28=Blues Riffs #1
TTITLE29=Blues Riff #2
TTITLE30=Blues Riff #3
TTITLE31=Blues Riff #4
TTITLE32=Blues Riff #5
TTITLE33=BB Box In A Between Positions 1 And 2
TTITLE34=Shuffle Blues Rythmn
TTITLE35=Shuffle Blues Rythmn With Bass And Drums
TTITLE36=You Play Shuffle Blues Rythmn With Bass And Drums
TTITLE37=Full Blues Lead - Slow
TTITLE38=Full Bllues Lead With Backing Track
TTITLE39=You Play Full Blues Lead With Backing Track
TTITLE40=F Blues Bar Chord
TTITLE41=FM Blues Bar Chord
TTITLE42=F7 Blues Bar Chord
TTITLE43=Bflat Blues Bar Chord
TTITLE44=Bflat Minor Blues Bar Chord
TTITLE45=Eflat 7 Blues Bar Chord
TTITLE46=Single Note Riff Rythmn In D
TTITLE47=Single Note Riff Rythmn In D With Backing Track
TTITLE48=You Play Single Note Riff Rythmn In D With Backing
TTITLE49=12 Bar Blues Progression
TTITLE50=12 Bar Blues Progression With Backing Track
TTITLE51=You Play 12 Bar Blues Progression With Backing Tra
TTITLE52=Slides
TTITLE53=Vibrato
TTITLE54=Rockin The Blues
TTITLE55=Rockin The Blues With Backing Track
TTITLE56=You Play Rockin The Blues With Backing Track
TTITLE57=Blues Riffs Part2 #1
TTITLE58=Blues Riffs Part2 #2
TTITLE59=Blues Riffs Part2 #3
TTITLE60=Blues Riffs Part2 #4
TTITLE61=Blues Riffs Part2 #5
TTITLE62=Blues Riffs Part2 #6
TTITLE63=E Open Chord Blues Progression
TTITLE64=E Open Chord Blues Progression With Backing Track
TTITLE65=You Play E Open Chord Blues Progression With Backi
TTITLE66=Congradulations - You Passed
TTITLE67=12 Bar Blues Progression - Backing Track
TTITLE68=Open Chord Blues Progression - Backing Track
TTITLE69=Rockin The Blues - Backing Track
TTITLE70=Single Note Riff Rythmn - Backing Track
EXTD=
EXTT0=
EXTT1=
EXTT2=
EXTT3=
EXTT4=
EXTT5=
EXTT6=
EXTT7=
EXTT8=
EXTT9=
EXTT10=
EXTT11=
EXTT12=
EXTT13=
EXTT14=
EXTT15=
EXTT16=
EXTT17=
EXTT18=
EXTT19=
EXTT20=
EXTT21=
EXTT22=
EXTT23=
EXTT24=
EXTT25=
EXTT26=
EXTT27=
EXTT28=
EXTT29=
EXTT30=
EXTT31=
EXTT32=
EXTT33=
EXTT34=
EXTT35=
EXTT36=
EXTT37=
EXTT38=
EXTT39=
EXTT40=
EXTT41=
EXTT42=
EXTT43=
EXTT44=
EXTT45=
EXTT46=
EXTT47=
EXTT48=
EXTT49=
EXTT50=
EXTT51=
EXTT52=
EXTT53=
EXTT54=
EXTT55=
EXTT56=
EXTT57=
EXTT58=
EXTT59=
EXTT60=
EXTT61=
EXTT62=
EXTT63=
EXTT64=
EXTT65=
EXTT66=
EXTT67=
EXTT68=
EXTT69=
EXTT70=
PLAYORDER=
